<svg width="156" height="59" viewBox="0 0 156 59" fill="none" xmlns="http://www.w3.org/2000/svg">
<path fill-rule="evenodd" clip-rule="evenodd" d="M61 9H20C8.95431 9 0 17.9543 0 29C0 40.0457 8.9543 49 20 49H61V48H20C9.50659 48 1 39.4934 1 29C1 18.5066 9.50659 10 20 10H61V9ZM95 48H136C146.493 48 155 39.4934 155 29C155 18.5066 146.493 10 136 10H95V9H136C147.046 9 156 17.9543 156 29C156 40.0457 147.046 49 136 49H95V48Z" fill="white"/>
<path d="M77.9516 0L76.8599 2.06891L75.8035 4.13782C76.5606 5.59046 77.2297 6.84941 77.978 8.27563L80.1526 4.13782L79.0345 2.06891L77.9516 0Z" fill="white"/>
<path d="M88.9123 7.05177L88.8067 6.99015L88.701 6.91972L88.5866 6.85809L88.481 6.78766L88.3665 6.72603L88.2609 6.6644L88.1552 6.60278L88.0408 6.54115L87.9263 6.47952L87.8207 6.4267L87.7062 6.36507L87.5918 6.30345L87.4861 6.24182L87.3717 6.189L87.2572 6.12737L87.1428 6.07454L87.0283 6.02172L86.9139 5.9689L86.7994 5.90727L86.7378 5.88086L85.7253 8.09063L85.7694 8.10824L85.875 8.15226L85.9718 8.20508L86.0775 8.2579L86.1743 8.30192L86.2712 8.35475L86.3768 8.40757L86.4737 8.46039L86.5705 8.50441L86.6674 8.55724L86.773 8.61886L86.8698 8.67169L86.9667 8.72451L87.0635 8.77733L87.1604 8.83015L87.2572 8.89178L87.3541 8.94461L87.4509 8.99743L87.5477 9.05906L87.6446 9.12068L87.7326 9.17351L89.0004 7.1046L88.9123 7.05177Z" fill="white"/>
<path d="M84.1763 4.89502L84.053 4.8598L83.9298 4.82459L83.8065 4.78057L83.6833 4.74535L83.56 4.71894L83.428 4.68373L83.3047 4.64851L83.1815 4.6133L83.0582 4.58688L82.9261 4.55167L82.8029 4.51645L82.6796 4.49004L82.5476 4.46363L82.4243 4.43722L82.2923 4.402L82.169 4.37559L82.037 4.35798L81.9137 4.33157L81.8433 4.31396L81.4031 6.69981L81.4559 6.70862L81.5703 6.73503L81.6848 6.75264L81.7904 6.77905L81.9049 6.80546L82.0193 6.83187L82.1338 6.85828L82.2394 6.88469L82.3539 6.9023L82.4683 6.93752L82.574 6.96393L82.6884 6.99034L82.8029 7.02556L82.9085 7.05197L83.0142 7.07838L83.1286 7.11359L83.2343 7.14881L83.3487 7.17522L83.4544 7.21044L83.5688 7.24565L83.6128 7.26326L84.3436 4.94784L84.2995 4.93904L84.1763 4.89502Z" fill="white"/>
<path d="M74.1223 4.30519L73.9902 4.3316L73.8582 4.35801L73.7349 4.37562L73.6029 4.40203L73.4796 4.43725L73.3475 4.46366L73.2243 4.49007L73.0922 4.51648L72.969 4.5517L72.8457 4.58691L72.7225 4.61333L72.5904 4.64854L72.4672 4.68376L72.3439 4.71897L72.2206 4.74538L72.0974 4.7806L71.9741 4.82462L71.8421 4.85983L71.7276 4.89505L71.6748 4.91266L72.4055 7.22807L72.4407 7.21047L72.5552 7.17525L72.6608 7.14884L72.7665 7.11362L72.8809 7.07841L72.9954 7.052L73.101 7.02559L73.2155 6.99037L73.3211 6.96396L73.4356 6.93755L73.5412 6.90233L73.6557 6.88472L73.7701 6.85831L73.8846 6.8319L73.9902 6.80549L74.1047 6.77908L74.2191 6.75267L74.3336 6.73506L74.448 6.70865L74.5537 6.69104L74.6153 6.68223L74.1751 4.29639L74.1223 4.30519Z" fill="white"/>
<path d="M69.2186 5.85452L69.1041 5.90734L68.9897 5.96897L68.8752 6.0218L68.7608 6.07462L68.6463 6.12744L68.5319 6.18907L68.4174 6.24189L68.303 6.30352L68.1973 6.36515L68.0829 6.42677L67.9684 6.4796L67.8628 6.54122L67.7483 6.60285L67.6427 6.66448L67.5282 6.7261L67.4226 6.78773L67.3081 6.85816L67.2025 6.91979L67.0968 6.99022L67 7.04304L68.2766 9.11195L68.3558 9.05913L68.4526 8.9975L68.5407 8.94468L68.6375 8.89186L68.7344 8.83023L68.8312 8.77741L68.9369 8.72458L69.0337 8.67176L69.1305 8.61894L69.2274 8.55731L69.3242 8.50449L69.4211 8.46047L69.5267 8.40764L69.6236 8.35482L69.7204 8.302L69.826 8.25798L69.9229 8.20515L70.0285 8.15233L70.1254 8.10831L70.231 8.06429L70.2838 8.03788L69.2714 5.83691L69.2186 5.85452Z" fill="white"/>
<path d="M77.9516 58.1738L76.8599 56.1049L75.8035 54.036C76.5606 52.5834 77.2297 51.3244 77.978 49.8982L80.1526 54.036L79.0345 56.1049L77.9516 58.1738Z" fill="white"/>
<path d="M88.9123 51.1221L88.8067 51.1837L88.701 51.2541L88.5866 51.3157L88.481 51.3862L88.3665 51.4478L88.2609 51.5094L88.1552 51.5711L88.0408 51.6327L87.9263 51.6943L87.8207 51.7471L87.7062 51.8088L87.5918 51.8704L87.4861 51.932L87.3717 51.9848L87.2572 52.0465L87.1428 52.0993L87.0283 52.1521L86.9139 52.2049L86.7994 52.2666L86.7378 52.293L85.7253 50.0832L85.7694 50.0656L85.875 50.0216L85.9718 49.9687L86.0775 49.9159L86.1743 49.8719L86.2712 49.8191L86.3768 49.7663L86.4737 49.7134L86.5705 49.6694L86.6674 49.6166L86.773 49.555L86.8698 49.5021L86.9667 49.4493L87.0635 49.3965L87.1604 49.3437L87.2572 49.282L87.3541 49.2292L87.4509 49.1764L87.5477 49.1148L87.6446 49.0531L87.7326 49.0003L89.0004 51.0692L88.9123 51.1221Z" fill="white"/>
<path d="M84.1763 53.2788L84.053 53.314L83.9298 53.3492L83.8065 53.3933L83.6833 53.4285L83.56 53.4549L83.428 53.4901L83.3047 53.5253L83.1815 53.5605L83.0582 53.5869L82.9261 53.6222L82.8029 53.6574L82.6796 53.6838L82.5476 53.7102L82.4243 53.7366L82.2923 53.7718L82.169 53.7982L82.037 53.8158L81.9137 53.8423L81.8433 53.8599L81.4031 51.474L81.4559 51.4652L81.5703 51.4388L81.6848 51.4212L81.7904 51.3948L81.9049 51.3684L82.0193 51.342L82.1338 51.3155L82.2394 51.2891L82.3539 51.2715L82.4683 51.2363L82.574 51.2099L82.6884 51.1835L82.8029 51.1483L82.9085 51.1219L83.0142 51.0954L83.1286 51.0602L83.2343 51.025L83.3487 50.9986L83.4544 50.9634L83.5688 50.9282L83.6128 50.9106L84.3436 53.226L84.2995 53.2348L84.1763 53.2788Z" fill="white"/>
<path d="M74.1223 53.8686L73.9902 53.8422L73.8582 53.8158L73.7349 53.7982L73.6029 53.7718L73.4796 53.7366L73.3475 53.7102L73.2243 53.6838L73.0922 53.6573L72.969 53.6221L72.8457 53.5869L72.7225 53.5605L72.5904 53.5253L72.4672 53.4901L72.3439 53.4549L72.2206 53.4284L72.0974 53.3932L71.9741 53.3492L71.8421 53.314L71.7276 53.2788L71.6748 53.2612L72.4055 50.9458L72.4407 50.9634L72.5552 50.9986L72.6608 51.025L72.7665 51.0602L72.8809 51.0954L72.9954 51.1218L73.101 51.1482L73.2155 51.1835L73.3211 51.2099L73.4356 51.2363L73.5412 51.2715L73.6557 51.2891L73.7701 51.3155L73.8846 51.3419L73.9902 51.3683L74.1047 51.3948L74.2191 51.4212L74.3336 51.4388L74.448 51.4652L74.5537 51.4828L74.6153 51.4916L74.1751 53.8774L74.1223 53.8686Z" fill="white"/>
<path d="M69.2186 52.3193L69.1041 52.2665L68.9897 52.2049L68.8752 52.152L68.7608 52.0992L68.6463 52.0464L68.5319 51.9848L68.4174 51.9319L68.303 51.8703L68.1973 51.8087L68.0829 51.7471L67.9684 51.6942L67.8628 51.6326L67.7483 51.571L67.6427 51.5094L67.5282 51.4477L67.4226 51.3861L67.3081 51.3157L67.2025 51.254L67.0968 51.1836L67 51.1308L68.2766 49.0619L68.3558 49.1147L68.4526 49.1763L68.5407 49.2291L68.6375 49.282L68.7344 49.3436L68.8312 49.3964L68.9369 49.4492L69.0337 49.5021L69.1305 49.5549L69.2274 49.6165L69.3242 49.6693L69.4211 49.7134L69.5267 49.7662L69.6236 49.819L69.7204 49.8718L69.826 49.9159L69.9229 49.9687L70.0285 50.0215L70.1254 50.0655L70.231 50.1095L70.2838 50.1359L69.2714 52.3369L69.2186 52.3193Z" fill="white"/>
</svg>
