<?xml version="1.0" standalone="no"?>
<!DOCTYPE svg PUBLIC "-//W3C//DTD SVG 20010904//EN"
 "http://www.w3.org/TR/2001/REC-SVG-20010904/DTD/svg10.dtd">
<svg version="1.0" xmlns="http://www.w3.org/2000/svg"
 width="1392.000000pt" height="1392.000000pt" viewBox="0 0 1392.000000 1392.000000"
 preserveAspectRatio="xMidYMid meet">
<metadata>
Created by potrace 1.14, written by Peter Selinger 2001-2017
</metadata>
<g transform="translate(0.000000,1392.000000) scale(0.100000,-0.100000)"
fill="#000000" stroke="none">
<path d="M6885 13821 c-28 -53 -53 -97 -57 -99 -5 -2 -8 -12 -8 -22 0 -10 -3
-20 -7 -22 -8 -3 -41 -67 -167 -313 -28 -55 -53 -102 -56 -105 -3 -3 -17 -27
-31 -55 -92 -179 -162 -311 -170 -320 -5 -5 -9 -17 -9 -27 0 -10 -4 -18 -10
-18 -5 0 -10 -5 -10 -11 0 -7 -13 -34 -30 -60 -16 -27 -27 -49 -24 -49 4 0 2
-6 -4 -13 -6 -7 -31 -52 -56 -100 -25 -48 -67 -126 -92 -174 -26 -49 -72 -137
-103 -198 -31 -60 -58 -112 -61 -115 -5 -5 -78 -145 -159 -305 -20 -38 -38
-72 -41 -75 -3 -3 -22 -39 -43 -80 -38 -75 -77 -149 -217 -415 -122 -229 -157
-297 -189 -360 -17 -33 -36 -67 -41 -75 -6 -8 -15 -26 -20 -40 -6 -14 -23 -47
-38 -75 -32 -57 -118 -219 -223 -421 -40 -77 -77 -142 -83 -146 -6 -4 -7 -8
-2 -8 5 0 4 -6 -2 -12 -5 -7 -32 -56 -59 -108 -28 -52 -79 -149 -113 -215 -35
-66 -72 -132 -82 -147 -11 -16 -16 -28 -12 -28 3 0 2 -6 -3 -12 -6 -7 -34 -58
-63 -113 -29 -55 -70 -131 -90 -170 -21 -38 -55 -104 -76 -145 -22 -41 -43
-78 -49 -82 -5 -4 -6 -8 -1 -8 5 0 4 -6 -2 -12 -10 -13 -85 -152 -131 -243
-13 -27 -27 -52 -30 -55 -3 -3 -25 -43 -49 -90 -23 -47 -63 -123 -88 -170 -72
-135 -143 -268 -192 -360 -24 -47 -67 -128 -95 -180 -27 -52 -66 -124 -85
-160 -19 -36 -49 -92 -66 -125 -16 -33 -35 -63 -41 -67 -5 -4 -6 -8 -1 -8 5 0
4 -6 -2 -12 -5 -7 -33 -58 -62 -113 -29 -55 -69 -129 -88 -165 -19 -36 -52
-100 -73 -142 -22 -42 -44 -80 -49 -83 -6 -3 -10 -15 -10 -26 0 -10 -5 -19
-11 -19 -5 0 -7 -4 -4 -10 3 -5 2 -10 -3 -10 -6 0 -13 -7 -16 -17 -7 -16 4
-40 101 -223 28 -52 75 -142 106 -200 30 -58 87 -166 126 -240 39 -74 86 -164
104 -200 18 -36 34 -67 37 -70 3 -3 19 -32 36 -65 40 -80 167 -323 214 -410
21 -38 63 -119 95 -180 97 -185 137 -259 148 -272 5 -7 6 -13 3 -13 -4 0 1
-12 11 -27 10 -16 25 -41 33 -58 8 -16 27 -52 42 -78 16 -26 28 -54 28 -62 0
-8 3 -15 8 -15 4 0 23 -33 42 -73 19 -39 37 -74 40 -77 3 -3 22 -39 44 -80
104 -202 138 -266 147 -274 5 -6 9 -18 9 -28 0 -10 4 -18 10 -18 5 0 12 -11
16 -25 3 -14 10 -25 15 -25 5 0 9 -8 9 -18 0 -10 4 -22 9 -28 5 -5 30 -49 56
-99 26 -49 67 -126 90 -170 23 -44 59 -114 80 -155 21 -41 45 -82 53 -92 7 -9
14 -22 16 -30 1 -7 11 -29 22 -48 12 -19 36 -64 54 -100 18 -36 45 -87 60
-115 15 -27 53 -99 85 -160 32 -60 78 -148 103 -195 24 -47 61 -116 82 -155
51 -96 117 -220 180 -340 29 -55 73 -138 98 -185 24 -47 65 -123 89 -170 25
-47 49 -89 54 -94 5 -6 9 -18 9 -27 0 -10 4 -19 8 -21 4 -1 27 -41 51 -88 25
-47 56 -107 71 -135 56 -104 129 -243 169 -320 22 -44 44 -84 48 -90 5 -5 25
-44 47 -85 47 -92 146 -281 196 -375 61 -115 136 -256 168 -318 16 -31 35 -64
42 -72 7 -8 9 -15 5 -15 -4 0 -3 -6 3 -13 6 -7 35 -60 66 -117 30 -58 68 -130
85 -160 16 -30 42 -79 57 -109 15 -30 37 -72 50 -95 20 -35 24 -38 30 -21 4
11 18 37 31 58 13 20 20 37 17 37 -4 0 -2 6 4 13 10 12 46 77 133 245 26 50
55 102 63 114 9 12 16 30 16 40 0 10 4 18 9 18 5 0 14 12 20 28 5 15 34 72 64
127 65 121 137 257 204 385 175 332 229 434 274 516 16 28 25 54 22 58 -4 3
-2 6 3 6 5 0 41 62 79 138 39 75 72 139 75 142 3 3 19 32 35 65 17 33 32 62
36 65 3 3 18 32 34 65 15 33 30 62 34 65 3 3 28 50 56 105 27 55 54 103 60
107 5 4 6 8 1 8 -5 0 -4 6 1 12 11 13 49 84 148 273 32 61 76 144 98 185 65
121 67 124 67 137 0 6 3 13 8 15 9 4 32 46 119 218 37 74 71 137 74 140 3 3
23 39 44 80 20 41 55 109 77 150 22 41 57 107 78 145 20 39 57 108 81 155 24
47 47 87 50 90 3 3 11 21 19 40 8 19 17 37 20 40 4 3 18 28 31 55 65 128 93
180 99 185 4 3 11 16 15 30 4 14 14 33 23 43 8 9 12 17 8 17 -4 0 1 12 12 27
10 16 30 51 43 78 14 28 49 95 78 150 30 55 71 132 91 170 21 39 61 115 90
170 29 55 75 143 103 195 27 52 68 131 91 175 23 44 44 82 49 83 4 2 7 12 7
23 0 10 4 19 8 19 5 0 16 17 25 38 9 20 41 83 71 140 30 56 65 121 77 145 12
23 26 49 31 57 5 8 14 27 21 43 6 15 15 27 19 27 4 0 8 8 8 18 0 10 4 22 9 28
11 12 54 91 122 224 29 58 56 107 59 110 3 3 26 46 51 95 54 107 144 278 207
393 l45 84 -38 71 c-33 65 -75 144 -205 392 -23 44 -69 132 -102 195 -33 63
-80 151 -103 195 -111 209 -124 235 -117 235 4 0 2 4 -4 8 -6 4 -38 59 -71
122 -33 63 -84 160 -113 215 -29 55 -73 138 -98 185 -24 47 -70 135 -102 195
-135 260 -173 331 -182 343 -6 6 -7 12 -2 12 5 0 5 4 -1 8 -5 4 -26 39 -46 77
-105 201 -130 247 -145 270 -9 14 -13 25 -9 25 5 0 1 8 -7 18 -13 15 -50 83
-106 197 -8 17 -22 38 -31 49 -9 10 -14 19 -13 20 4 1 -20 58 -28 66 -3 3 -25
43 -49 90 -23 47 -68 132 -98 190 -31 58 -80 152 -111 210 -101 193 -124 235
-134 248 -6 6 -7 12 -3 12 5 0 2 8 -7 18 -8 9 -26 40 -39 67 -48 95 -121 230
-131 243 -6 6 -7 12 -3 12 4 0 2 7 -5 15 -7 9 -23 35 -35 58 -23 45 -104 198
-165 312 -21 39 -58 108 -82 155 -25 47 -69 130 -98 185 -29 55 -65 124 -80
153 -16 29 -34 60 -41 69 -8 9 -13 19 -12 22 1 3 -21 49 -49 101 -28 52 -68
128 -89 168 -20 40 -42 79 -49 87 -6 8 -13 20 -14 27 -1 7 -6 20 -11 28 -13
19 -19 31 -97 180 -122 233 -150 285 -183 345 -32 58 -83 155 -170 320 -23 44
-61 116 -85 160 -23 44 -56 107 -73 140 -17 33 -37 68 -45 78 -9 9 -12 17 -7
17 4 0 3 6 -3 13 -5 6 -38 66 -73 132 -34 66 -70 132 -79 146 l-16 27 -49 -97z
m70 -1642 c4 -11 22 -46 40 -79 18 -32 31 -61 27 -64 -3 -3 -1 -6 4 -6 6 0 24
-28 40 -62 16 -35 32 -65 35 -68 3 -3 21 -36 40 -75 18 -38 36 -72 39 -75 3
-3 20 -34 39 -70 18 -36 56 -108 84 -160 27 -52 68 -129 90 -170 21 -41 43
-79 48 -85 5 -5 9 -17 9 -27 0 -10 5 -18 10 -18 6 0 10 -4 10 -10 0 -5 13 -32
30 -60 16 -27 26 -50 22 -50 -4 0 -2 -4 3 -8 6 -4 20 -27 33 -52 13 -25 42
-81 65 -125 22 -44 51 -97 64 -117 13 -21 20 -38 16 -38 -5 0 -3 -4 2 -8 6 -4
23 -32 38 -62 51 -98 149 -284 177 -335 15 -27 55 -102 88 -165 32 -63 75
-144 94 -180 19 -36 63 -119 98 -185 34 -66 79 -151 100 -190 69 -130 178
-339 227 -435 26 -52 50 -97 53 -100 3 -3 19 -32 36 -65 28 -56 102 -196 199
-380 46 -86 151 -287 196 -373 15 -29 32 -59 39 -67 7 -8 9 -15 5 -15 -4 0 -3
-6 3 -12 5 -7 33 -58 62 -113 75 -144 241 -459 408 -775 27 -52 74 -142 105
-200 l54 -106 -58 -109 c-32 -61 -73 -139 -91 -175 -17 -36 -34 -67 -37 -70
-3 -3 -16 -25 -28 -50 -12 -25 -63 -121 -112 -215 -50 -93 -110 -208 -133
-255 -24 -47 -46 -87 -49 -90 -3 -3 -25 -43 -49 -90 -23 -47 -57 -112 -75
-145 -18 -33 -60 -112 -93 -175 -33 -63 -72 -137 -87 -165 -15 -27 -61 -115
-103 -195 -41 -80 -80 -148 -86 -152 -6 -4 -7 -8 -3 -8 7 0 -20 -57 -33 -70
-3 -3 -16 -29 -29 -58 -14 -28 -29 -52 -34 -52 -6 0 -7 -3 -4 -7 4 -3 3 -11
-2 -17 -4 -6 -36 -65 -71 -131 -184 -353 -238 -455 -252 -472 -6 -7 -7 -13 -2
-13 5 0 5 -4 -1 -8 -5 -4 -26 -38 -45 -77 -19 -38 -38 -72 -41 -75 -3 -3 -11
-20 -18 -37 -8 -18 -18 -33 -24 -33 -6 0 -7 -3 -4 -7 4 -3 -2 -20 -12 -37 -10
-17 -46 -85 -81 -151 -35 -66 -77 -147 -95 -180 -56 -104 -158 -298 -178 -340
-11 -22 -22 -42 -26 -45 -3 -3 -27 -48 -53 -100 -26 -52 -69 -135 -96 -185
-26 -49 -79 -148 -117 -220 -123 -235 -137 -260 -147 -273 -6 -6 -8 -12 -4
-12 3 0 -7 -21 -22 -47 -15 -27 -47 -86 -72 -133 -24 -47 -47 -86 -52 -88 -4
-2 -8 -9 -8 -15 0 -13 -8 -30 -59 -119 -17 -32 -29 -58 -26 -58 3 0 1 -6 -5
-12 -7 -7 -37 -62 -69 -122 -31 -59 -61 -108 -66 -108 -4 0 -29 40 -55 89 -58
109 -160 303 -192 363 -12 25 -26 47 -30 48 -5 2 -8 12 -8 22 0 10 -3 20 -7
22 -5 2 -20 28 -36 58 -15 30 -45 87 -66 127 -47 86 -71 133 -81 153 -16 37
-56 107 -69 123 -8 9 -11 17 -8 17 4 0 -7 22 -23 50 -16 27 -27 50 -24 50 2 0
0 6 -6 12 -12 13 -60 104 -127 238 -21 41 -40 77 -43 80 -5 5 -14 21 -110 205
-141 269 -209 395 -223 412 -5 7 -6 13 -2 13 5 0 0 9 -10 20 -10 11 -15 20
-11 20 4 0 -1 12 -11 27 -11 16 -30 51 -44 78 -13 28 -26 52 -29 55 -3 3 -15
25 -27 50 -12 25 -61 117 -108 205 -47 88 -99 187 -116 220 -17 33 -47 89 -66
125 -20 36 -47 88 -60 115 -14 28 -37 70 -51 95 -15 24 -27 51 -28 58 -2 8 -9
21 -17 30 -8 10 -24 40 -37 67 -13 28 -26 52 -29 55 -3 3 -23 39 -44 80 -20
41 -62 122 -93 180 -31 58 -82 155 -114 215 -31 61 -79 151 -105 200 -100 189
-149 283 -195 370 -26 50 -71 135 -100 190 -29 55 -56 104 -61 110 -5 5 -9 15
-9 23 0 7 -7 20 -15 29 -8 8 -13 19 -10 24 4 5 3 9 -2 9 -4 0 -21 28 -38 63
-16 34 -33 66 -38 72 -4 5 -28 51 -53 100 -26 50 -62 118 -80 153 -34 62 -42
96 -25 106 4 3 21 32 37 63 16 32 44 84 61 116 18 33 33 65 33 72 0 7 4 15 9
17 4 2 37 59 73 128 172 330 202 386 212 392 6 4 7 8 3 8 -5 0 1 14 13 30 12
17 18 30 14 30 -3 0 -2 6 4 13 14 17 36 58 132 242 46 88 89 167 96 176 8 8
14 22 14 30 0 8 4 19 9 24 10 12 53 90 146 270 37 72 80 153 95 180 15 28 47
88 71 135 24 47 46 87 49 90 3 3 32 57 64 120 33 63 78 150 102 192 23 43 46
87 49 98 3 11 11 20 16 20 5 0 9 8 9 18 0 10 4 22 9 28 5 5 30 50 56 99 26 50
70 133 98 185 28 52 64 122 81 155 17 33 33 62 36 65 3 3 19 32 35 65 30 59
174 334 246 470 20 39 72 138 114 220 43 83 84 157 91 166 8 9 11 19 7 22 -3
4 0 7 7 7 7 0 10 3 7 7 -4 3 -3 11 2 17 5 6 31 54 59 106 27 52 73 140 102
195 97 183 168 319 204 390 20 39 51 98 71 133 19 34 31 62 27 62 -4 0 -2 4 4
8 9 6 102 176 158 289 14 28 23 29 31 2z"/>
</g>
</svg>
